inDegrees=no
num_controls=7
num_derivatives=13
num_iterations=153
num_multipliers=7
num_parameters=0
num_slacks=7
num_states=26
objective=5.403212
objective_accelerations=0.779012
objective_balance=0.039466
objective_effort=0.250077
objective_height=4.282399
objective_ligament=0.052258
solver_duration=1676.304403
status=Solve_Succeeded
success=true
DataType=double
version=3
OpenSimVersion=4.4-2022-07-23-0e9fedc
endheader
time	/jointset/ground_pelvis/pelvis_tilt/value	/jointset/ground_pelvis/pelvis_tx/value	/jointset/ground_pelvis/pelvis_ty/value	/jointset/hip_l/hip_flexion_l/value	/jointset/hip_l/hip_adduction_l/value	/jointset/hip_l/hip_rotation_l/value	/jointset/back/lumbar_extension/value	/jointset/patellofemoral_l/patellar_flexion_l/value	/jointset/knee_l/knee_flexion_l/value	/jointset/knee_l/knee_adduction_l/value	/jointset/knee_l/knee_rotation_l/value	/jointset/ankle_l/ankle_angle_l/value	/jointset/subtalar_l/subtalar_angle_l/value	/jointset/ground_pelvis/pelvis_tilt/speed	/jointset/ground_pelvis/pelvis_tx/speed	/jointset/ground_pelvis/pelvis_ty/speed	/jointset/hip_l/hip_flexion_l/speed	/jointset/hip_l/hip_adduction_l/speed	/jointset/hip_l/hip_rotation_l/speed	/jointset/back/lumbar_extension/speed	/jointset/patellofemoral_l/patellar_flexion_l/speed	/jointset/knee_l/knee_flexion_l/speed	/jointset/knee_l/knee_adduction_l/speed	/jointset/knee_l/knee_rotation_l/speed	/jointset/ankle_l/ankle_angle_l/speed	/jointset/subtalar_l/subtalar_angle_l/speed	/forceset/tau_hip_flexion_l	/forceset/tau_hip_adduction_l	/forceset/tau_hip_rotation_l	/forceset/tau_knee_flexion_l	/forceset/tau_ankle_angle_l	/forceset/tau_subtalar_angle_l	/forceset/tau_lumbar_extension	lambda_cid13_p0	lambda_cid13_p1	lambda_cid13_p2	lambda_cid13_p3	lambda_cid13_p4	lambda_cid13_p5	lambda_cid14_p0	/jointset/ground_pelvis/pelvis_tilt/accel	/jointset/ground_pelvis/pelvis_tx/accel	/jointset/ground_pelvis/pelvis_ty/accel	/jointset/hip_l/hip_flexion_l/accel	/jointset/hip_l/hip_adduction_l/accel	/jointset/hip_l/hip_rotation_l/accel	/jointset/back/lumbar_extension/accel	/jointset/patellofemoral_l/patellar_flexion_l/accel	/jointset/knee_l/knee_flexion_l/accel	/jointset/knee_l/knee_adduction_l/accel	/jointset/knee_l/knee_rotation_l/accel	/jointset/ankle_l/ankle_angle_l/accel	/jointset/subtalar_l/subtalar_angle_l/accel	gamma_cid13_p0	gamma_cid13_p1	gamma_cid13_p2	gamma_cid13_p3	gamma_cid13_p4	gamma_cid13_p5	gamma_cid14_p0
0.5	-0.4680904376998029	-0.07050420395486348	0.7609375450757885	1.275287391698376	-0.3623196703079321	-0.03952564749138866	-0.4127641699048463	0.7518062789670871	0.7518062789672003	-0.07468158237322825	-0.1745318104411748	0.04968920279714704	0.07289977971408346	-1.43458089731564	-0.4122321060828383	-0.552377938863289	3.105347954371708	0.05752993061314694	0.4759005792105138	-0.2657899387298229	1.433441524999221	1.4334415249993	0.216496177367921	6.090375050890284e-05	-0.1253821669472569	0.01767424653037436	-0.1854470672545918	-0.005676618936179786	0.01039558222866566	-0.1348822671666431	0.08133330954759414	0.01462239296955708	0.1613039408878547	1.917059117226845	-6.390398793893046	0.3999540954445542	-7.746935611338468	-434.4676251796426	-71.11375559907127	-13.21897947084983	0.6340226814451533	0.7646493713136798	-0.3797379036504946	-1.976842558468754	0.1678157897681521	-0.4988735061938042	1.719532094757759	-1.213575162961712	-1.213575162961591	-0.3431654424581136	0.05426681338982573	-0.007421720553064309	0.1748461894623537	-9.767603903195648e-08	-1.131258630839178e-06	2.080857606656547e-07	-2.337438806297731e-07	-4.56816120926293e-07	4.390763733916073e-07	-2.729154302395778e-07
0.51	-0.4824014112062996	-0.07458769192207416	0.7553962308864468	1.306235969581177	-0.3617375536792084	-0.03479400076600744	-0.4153376246684072	0.7660775266215636	0.7660775266214933	-0.07253553204119861	-0.1745313410649375	0.04843477239821675	0.07308356923066048	-1.427427007159785	-0.4044171376917142	-0.5557510046466099	3.083937197704621	0.05887173517663364	0.4703838985836723	-0.2489146086976655	1.420586302416744	1.420586302416724	0.2126813271029545	3.221164622809052e-05	-0.1254960346498289	0.01906347989476564	-0.1928823224138907	-0.005112059798707208	0.009881205832745831	-0.1351864564788515	0.08305871112308467	0.01548503081829008	0.1663825856742429	2.301390110774908	-6.695551294285846	0.2923628008138142	-8.168513320842964	-438.6295629291005	-71.31100912847796	-12.63188350937159	0.7840522139219362	0.7971222773709468	-0.2960861030943353	-2.287801328207235	0.1143175123707194	-0.5849864343517546	1.669494250114854	-1.354701922419484	-1.354701922434431	-0.4057768114026348	-0.03149455502600643	-0.01223425776502177	0.1181156593808717	-7.913615228600898e-08	-1.086390769754705e-06	7.073911336452372e-08	-2.409287114785775e-07	-3.916223595506027e-07	4.243696979152122e-07	-2.459761754505084e-07
0.52	-0.4966352498049839	-0.07859158986450165	0.7498251870017875	1.336957518075834	-0.3611426280603023	-0.0301189050655825	-0.4177427339731127	0.7802135808268935	0.7802135808266707	-0.07042865661032324	-0.174531170076307	0.04717943032972956	0.07328068183077208	-1.419153915753279	-0.3963141011262045	-0.5583238779267933	3.059942076742398	0.06009172864939465	0.4645903742199297	-0.2321208469587041	1.406402835173111	1.406402835172991	0.2086611971225183	1.226234390131292e-06	-0.1255645008586325	0.02033886323729126	-0.200317577573192	-0.004547500661243161	0.009366829437111637	-0.1354906457910739	0.08478411269856863	0.01634766866700898	0.171461230460631	2.685204560367882	-7.001163741272247	0.1854733845101588	-8.5928112364388	-442.8006479775478	-71.54729940618836	-12.04810710258622	0.857862931575207	0.8222630061907863	-0.2196994030230194	-2.493715417495797	0.1434535716230071	-0.5542422535740504	1.703218436118546	-1.479224095193167	-1.479224095193225	-0.3842213855520845	0.05380815187834904	0.001658578200593081	0.1520761850891972	-8.480431781748061e-08	-9.661138299392687e-07	1.807080843125177e-07	-2.150673963827208e-07	-3.813516181971266e-07	4.526185735425529e-07	-2.438561361120469e-07
0.53	-0.5107808992386945	-0.08251313012785523	0.7442324015091919	1.367426629878724	-0.360536099847534	-0.02550253351313333	-0.4199803454188737	0.7942014503212848	0.7942014503212464	-0.06836316353317262	-0.1745309197589604	0.04592369382566757	0.07349000584448789	-1.409789355665289	-0.3879557832304056	-0.5600989031511926	3.033471503884651	0.06119746045166514	0.4586299873984538	-0.2154317645252974	1.390973969552655	1.390973969552574	0.204429276402808	4.052798276615207e-05	-0.1255681498899573	0.02151344952025337	-0.2078103378896841	-0.004159347852035835	0.008826859309274493	-0.135631122258712	0.08619559289225812	0.01722322662480067	0.1764955328224858	2.966051804915119	-7.302462640871545	0.0871531417630468	-8.898495225618557	-446.9792469985812	-71.77650481286675	-11.46813372465353	1.003706826316961	0.8483011316570697	-0.1363316573603916	-2.785089347677481	0.09180409560327164	-0.6252211042600222	1.647204797102761	-1.604233369860889	-1.604233369854958	-0.444094873775346	-0.02216321660401541	0.0007844692959904651	0.09839178763601335	-8.747044999874742e-08	-8.579410085039718e-07	2.649403619597339e-07	-1.934253602895729e-07	-3.651908875568533e-07	4.74225259852238e-07	-2.393293175962619e-07
0.54	-0.5248273122157451	-0.08634995022217416	0.7386258802493099	1.397618763727493	-0.3599189800945252	-0.02094742267047076	-0.4220519757102685	0.8080291280445965	0.8080291280447315	-0.06634027315493785	-0.1745305073046998	0.04466835305391123	0.07371072410858058	-1.399306624421053	-0.379370067319276	-0.5610710313840744	3.00454648591638	0.06221003669690735	0.4523382322639499	-0.1989246160858502	1.374364480956633	1.374364480956592	0.2001406573393043	3.365361429268195e-05	-0.1254853543974838	0.02261771331266712	-0.2153030982060976	-0.003771195042838816	0.008286889181434191	-0.1357715987263633	0.08760707308592804	0.01809878458257597	0.1815298351844323	3.246286170165547	-7.604798377360138	-0.009694953373104092	-9.21168045129517	-451.1723647267939	-72.04910809484913	-10.89259933951998	1.081497162824388	0.8677426092569308	-0.05912000471951331	-2.984604439600354	0.1248224602173343	-0.6205159161796701	1.666831637326648	-1.715348690306392	-1.715348690306074	-0.3955610543107861	0.04457292850843911	0.01894748296025604	0.1380116869795196	-8.68151835797876e-08	-7.631599776169146e-07	3.206980002103446e-07	-1.764514626675069e-07	-3.42513573024804e-07	4.884831409594102e-07	-2.321396795651401e-07
0.55	-0.5387635735159947	-0.09009993627384938	0.7330136249302059	1.427509879717139	-0.3592921636378169	-0.01645646888724179	-0.4239595372669295	0.8216848903348395	0.8216848903348912	-0.06436063773482867	-0.1745300501442245	0.04341416463029166	0.07394213828742126	-1.387771168175366	-0.3706036334324275	-0.5612462022280298	2.973293459070196	0.06313651304435	0.44579221153227	-0.182642387856415	1.356591704443973	1.356591704443953	0.1957849499109829	4.628471094274637e-05	-0.1253504049656324	0.02364879606436391	-0.2227081160286023	-0.003365459769715415	0.007727919256748774	-0.1357790875553485	0.0887113974015159	0.01878425960710585	0.1863917433395735	3.416527041541323	-7.815131110076304	-0.1100064941621718	-9.341421131125841	-455.2843056389008	-72.13509151074977	-10.32219134008823	1.21570458048819	0.8845867772889152	0.02329287823473533	-3.253180734889586	0.0741431016541689	-0.6808737350137636	1.600714524212662	-1.837637385162987	-1.837637385160014	-0.4559540319690369	-0.02200847381515455	0.01102937819068477	0.08327924488370567	-8.544435684901129e-08	-6.604655790595317e-07	3.824894890611126e-07	-1.568184350544801e-07	-3.201197752476468e-07	4.969305105296474e-07	-2.231370761579952e-07
0.5600000000000001	-0.5525792533087794	-0.09376155938687801	0.7274036196031561	1.457076959652769	-0.358656565841703	-0.0120328210279992	-0.425705917319605	0.8351570458092611	0.8351570458092551	-0.06242463507794001	-0.1745297900076095	0.04216137784196931	0.07418338782890266	-1.375190322927783	-0.3616974795899542	-0.5606210329732665	2.939739275113532	0.06396630457764851	0.4388770474665242	-0.1666883152885522	1.337643117794624	1.337643117794623	0.1914141046876146	-5.751154742536526e-06	-0.1252050273380583	0.02458478584081971	-0.2301131338511188	-0.002959724496580588	0.007168949332224735	-0.1357865763843363	0.08981572171710715	0.01946973463164647	0.1912536514946982	3.585579656484429	-8.02702908807907	-0.2080429564743999	-9.479991120478893	-459.4219213419702	-72.26715222596091	-9.757750508491608	1.290574963203645	0.8956866003818914	0.1009480150242054	-3.444835861696162	0.1054854973885155	-0.6943445829928167	1.601200505012137	-1.950510717644151	-1.950510717644371	-0.3985886133201972	0.03163953604138555	0.0210331221047765	0.1189930919313234	-8.321485774405525e-08	-5.482751392977586e-07	4.515215986320689e-07	-1.339944514523003e-07	-2.980661975763599e-07	4.984052662555628e-07	-2.119589142996225e-07
0.5700000000000001	-0.5662640904099749	-0.09733341771103855	0.7218038465893365	1.486297328057579	-0.3580131188993438	-0.007679282624781831	-0.427294407450486	0.8484341356556818	0.8484341356557149	-0.06053277617527459	-0.174529726404348	0.04091032910064107	0.07443361767948149	-1.361606850717717	-0.3526489439573717	-0.5591993614101515	2.903959313315295	0.06470007271842861	0.4317997302819423	-0.1510829165104803	1.317601143294379	1.317601143294391	0.1869337805703448	1.926565728138683e-05	-0.1249830245031535	0.02544383450607449	-0.2372434015522725	-0.002871315818859753	0.006600540732438391	-0.1361074232320095	0.09146210541200291	0.02006870947147724	0.1958813434433203	3.930479896818955	-8.217969642817856	-0.3256176628814733	-9.788400043736528	-463.4906370774484	-72.39551850254216	-9.200129602296741	1.417739271629104	0.9131990206342074	0.1828508657378711	-3.700876390674278	0.05390984532091237	-0.7192254832849838	1.529228720717103	-2.057055918589721	-2.057055918587432	-0.4764464290707902	-0.01182238992780929	0.02602095527739667	0.06677726392532185	-7.913538964505497e-08	-4.906466203465374e-07	4.382905522106981e-07	-1.231408539954032e-07	-2.702948288496292e-07	4.90988036571753e-07	-1.996875656628635e-07
